<svg xmlns="http://www.w3.org/2000/svg" xmlns:xlink="http://www.w3.org/1999/xlink" version="1.1" width="475.082" height="475.081" style="" xml:space="preserve"><rect id="backgroundrect" width="100%" height="100%" x="0" y="0" fill="none" stroke="none"/>
















<g class="currentLayer" style=""><title>Layer 1</title><g id="svg_1" class="selected" transform="" fill="#ffffff" fill-opacity="1">
	<g id="svg_2" transform="" fill="#ffffff" fill-opacity="1">
		<path d="M163.64999693632126,219.27000427246094 h-63.95399856567383 c-7.613999843597412,0 -14.086999893188477,-2.6640000343322754 -19.41699981689453,-7.99399995803833 c-5.327000141143799,-5.329999923706055 -7.99399995803833,-11.800999641418457 -7.99399995803833,-19.41699981689453 v-9.131999969482422 c0,-20.177000045776367 7.138999938964844,-37.4010009765625 21.416000366210938,-51.678001403808594 c14.276000022888184,-14.272000312805176 31.503000259399414,-21.410999298095703 51.678001403808594,-21.410999298095703 h18.270999908447266 c4.947999954223633,0 9.229000091552734,-1.809000015258789 12.847000122070312,-5.423999786376953 c3.615999937057495,-3.617000102996826 5.423999786376953,-7.8979997634887695 5.423999786376953,-12.847000122070312 V54.819000244140625 c0,-4.947999954223633 -1.809000015258789,-9.232999801635742 -5.423999786376953,-12.850000381469727 c-3.617000102996826,-3.611999988555908 -7.8979997634887695,-5.423999786376953 -12.847000122070312,-5.423999786376953 h-18.270999908447266 c-19.797000885009766,0 -38.683998107910156,3.8580000400543213 -56.67300033569336,11.562999725341797 c-17.98699951171875,7.710000038146973 -33.54499816894531,18.131999969482422 -46.68000030517578,31.267000198364258 c-13.133999824523926,13.128999710083008 -23.55299949645996,28.687999725341797 -31.261999130249023,46.677001953125 C3.0550000071525574,144.03900146484375 -0.800000011920929,162.93099975585938 -0.800000011920929,182.7259979248047 v200.99099731445312 c0,15.234999656677246 5.327000141143799,28.17099952697754 15.986000061035156,38.83399963378906 c10.65999984741211,10.656999588012695 23.606000900268555,15.984999656677246 38.832000732421875,15.984999656677246 h109.63899993896484 c15.225000381469727,0 28.16699981689453,-5.328000068664551 38.827999114990234,-15.984999656677246 c10.656999588012695,-10.663000106811523 15.987000465393066,-23.599000930786133 15.987000465393066,-38.83399963378906 V274.0880126953125 c0,-15.232000350952148 -5.329999923706055,-28.167999267578125 -15.994000434875488,-38.832000732421875 C191.82199400663376,224.60000610351562 178.87500303983688,219.27000427246094 163.64999693632126,219.27000427246094 z" id="svg_3" transform="" fill="#ffffff" fill-opacity="1"/>
		<path d="M458.30299681425095,235.25599670410156 c-10.656000137329102,-10.656000137329102 -23.599000930786133,-15.986000061035156 -38.827999114990234,-15.986000061035156 h-63.952999114990234 c-7.610000133514404,0 -14.08899974822998,-2.6640000343322754 -19.40999984741211,-7.99399995803833 c-5.331999778747559,-5.329999923706055 -7.99399995803833,-11.800999641418457 -7.99399995803833,-19.41699981689453 v-9.131999969482422 c0,-20.177000045776367 7.138999938964844,-37.4010009765625 21.409000396728516,-51.678001403808594 c14.270999908447266,-14.272000312805176 31.496999740600586,-21.410999298095703 51.68199920654297,-21.410999298095703 h18.267000198364258 c4.948999881744385,0 9.232999801635742,-1.809000015258789 12.847999572753906,-5.423999786376953 c3.61299991607666,-3.617000102996826 5.427999973297119,-7.8979997634887695 5.427999973297119,-12.847000122070312 V54.819000244140625 c0,-4.947999954223633 -1.8140000104904175,-9.232999801635742 -5.427999973297119,-12.850000381469727 c-3.614000082015991,-3.611999988555908 -7.8979997634887695,-5.423999786376953 -12.847999572753906,-5.423999786376953 h-18.267000198364258 c-19.808000564575195,0 -38.691001892089844,3.8580000400543213 -56.685001373291016,11.562999725341797 c-17.983999252319336,7.710000038146973 -33.5369987487793,18.131999969482422 -46.672000885009766,31.267000198364258 c-13.135000228881836,13.128999710083008 -23.55900001525879,28.687999725341797 -31.264999389648438,46.677001953125 c-7.706999778747559,17.98699951171875 -11.567000389099121,36.87900161743164 -11.567000389099121,56.67399978637695 v200.99099731445312 c0,15.234999656677246 5.331999778747559,28.17099952697754 15.98799991607666,38.83399963378906 c10.656999588012695,10.656999588012695 23.600000381469727,15.984999656677246 38.827999114990234,15.984999656677246 h109.63300323486328 c15.229000091552734,0 28.17099952697754,-5.328000068664551 38.82699966430664,-15.984999656677246 c10.663999557495117,-10.663000106811523 15.984999656677246,-23.599000930786133 15.984999656677246,-38.83399963378906 V274.0880126953125 C474.28200072050095,258.8550109863281 468.96000975370407,245.9199981689453 458.30299681425095,235.25599670410156 z" id="svg_4" transform="" fill="#ffffff" fill-opacity="1"/>
	</g>
</g><g id="svg_5">
</g><g id="svg_6">
</g><g id="svg_7">
</g><g id="svg_8">
</g><g id="svg_9">
</g><g id="svg_10">
</g><g id="svg_11">
</g><g id="svg_12">
</g><g id="svg_13">
</g><g id="svg_14">
</g><g id="svg_15">
</g><g id="svg_16">
</g><g id="svg_17">
</g><g id="svg_18">
</g><g id="svg_19">
</g></g></svg>